<svg xmlns="http://www.w3.org/2000/svg" xmlns:xlink="http://www.w3.org/1999/xlink" x="0" y="0" width="661.0999755859375" height="403.0333251953125" style="
        width:661.0999755859375px;
        height:403.0333251953125px;
        background: transparent;
        fill: none;
">
        
        
        <svg xmlns="http://www.w3.org/2000/svg" class="role-diagram-draw-area"><g class="shapes-region" style="stroke: black; fill: none;"><g/></g><g/><g/><g/></svg>
        <svg xmlns="http://www.w3.org/2000/svg" xmlns:xlink="http://www.w3.org/1999/xlink" width="660" height="401.933349609375" style="width:660px;height:401.933349609375px;font-family:Asana-Math, Asana;background:transparent;"><g><g><g><g transform="matrix(1,0,0,1,29.54998779296875,32.56666564941406)"><path transform="matrix(0.017,0,0,-0.017,0,0)" d="M483 722L471 733C419 707 383 698 311 691L307 670L355 670C379 670 389 663 389 646C389 638 388 629 387 622L359 468C329 477 302 482 277 482C208 482 114 410 68 323C37 265 17 170 17 86C17 21 32 -11 61 -11C88 -11 125 6 159 33C213 77 246 116 313 217L290 126C279 82 274 50 274 24C274 3 283 -9 300 -9C317 -9 341 3 375 28L456 88L446 107L402 76C388 66 372 59 363 59C355 59 349 68 349 82C349 90 350 99 357 128ZM114 59C98 59 89 73 89 98C89 224 135 380 184 418C197 428 216 433 243 433C287 433 316 427 349 410L337 351C300 171 159 59 114 59Z" stroke="rgb(102,121,130)" stroke-opacity="1" stroke-width="8" fill="rgb(102,121,130)" fill-opacity="1"></path></g></g><g><g><g><g><g transform="matrix(1,0,0,1,38.54998779296875,35.550009155273436)"><path transform="matrix(0.0119,0,0,-0.0119,0,0)" d="M418 -3L418 27L366 30C311 33 301 44 301 96L301 700L60 598L67 548L217 614L217 96C217 44 206 33 152 30L96 27L96 -3C250 0 250 0 261 0C292 0 402 -3 418 -3ZM515 23L515 -3C702 -3 702 0 738 0C774 0 774 -3 967 -3L967 82C852 77 806 81 621 77L803 270C900 373 930 428 930 503C930 618 852 689 725 689C653 689 604 669 555 619L538 483L567 483L580 529C596 587 632 612 699 612C785 612 840 558 840 473C840 398 798 324 685 204Z" stroke="rgb(102,121,130)" stroke-opacity="1" stroke-width="8" fill="rgb(102,121,130)" fill-opacity="1"></path></g></g></g></g></g></g></g><g><g><g><g transform="matrix(1,0,0,1,105.54998779296875,37.16667175292969)"><path transform="matrix(0.017,0,0,-0.017,0,0)" d="M483 722L471 733C419 707 383 698 311 691L307 670L355 670C379 670 389 663 389 646C389 638 388 629 387 622L359 468C329 477 302 482 277 482C208 482 114 410 68 323C37 265 17 170 17 86C17 21 32 -11 61 -11C88 -11 125 6 159 33C213 77 246 116 313 217L290 126C279 82 274 50 274 24C274 3 283 -9 300 -9C317 -9 341 3 375 28L456 88L446 107L402 76C388 66 372 59 363 59C355 59 349 68 349 82C349 90 350 99 357 128ZM114 59C98 59 89 73 89 98C89 224 135 380 184 418C197 428 216 433 243 433C287 433 316 427 349 410L337 351C300 171 159 59 114 59Z" stroke="rgb(102,121,130)" stroke-opacity="1" stroke-width="8" fill="rgb(102,121,130)" fill-opacity="1"></path></g></g><g><g><g><g><g transform="matrix(1,0,0,1,114.54998779296875,40.15)"><path transform="matrix(0.0119,0,0,-0.0119,0,0)" d="M16 23L16 -3C203 -3 203 0 239 0C275 0 275 -3 468 -3L468 82C353 77 307 81 122 77L304 270C401 373 431 428 431 503C431 618 353 689 226 689C154 689 105 669 56 619L39 483L68 483L81 529C97 587 133 612 200 612C286 612 341 558 341 473C341 398 299 324 186 204ZM917 -3L917 27L865 30C810 33 800 44 800 96L800 700L559 598L566 548L716 614L716 96C716 44 705 33 651 30L595 27L595 -3C749 0 749 0 760 0C791 0 901 -3 917 -3Z" stroke="rgb(102,121,130)" stroke-opacity="1" stroke-width="8" fill="rgb(102,121,130)" fill-opacity="1"></path></g></g></g></g></g></g></g><g><g><g><g transform="matrix(1,0,0,1,370.54998779296875,37.56666564941406)"><path transform="matrix(0.017,0,0,-0.017,0,0)" d="M483 722L471 733C419 707 383 698 311 691L307 670L355 670C379 670 389 663 389 646C389 638 388 629 387 622L359 468C329 477 302 482 277 482C208 482 114 410 68 323C37 265 17 170 17 86C17 21 32 -11 61 -11C88 -11 125 6 159 33C213 77 246 116 313 217L290 126C279 82 274 50 274 24C274 3 283 -9 300 -9C317 -9 341 3 375 28L456 88L446 107L402 76C388 66 372 59 363 59C355 59 349 68 349 82C349 90 350 99 357 128ZM114 59C98 59 89 73 89 98C89 224 135 380 184 418C197 428 216 433 243 433C287 433 316 427 349 410L337 351C300 171 159 59 114 59Z" stroke="rgb(102,121,130)" stroke-opacity="1" stroke-width="8" fill="rgb(102,121,130)" fill-opacity="1"></path></g></g><g><g><g><g><g transform="matrix(1,0,0,1,379.54998779296875,40.550009155273436)"><path transform="matrix(0.0119,0,0,-0.0119,0,0)" d="M462 224C462 345 355 366 308 374C388 436 418 482 418 541C418 630 344 689 233 689C165 689 120 670 72 622L43 498L74 498L92 554C103 588 166 622 218 622C283 622 336 569 336 506C336 431 277 368 206 368C198 368 187 369 174 370L159 371L147 318L154 312C192 329 211 334 238 334C321 334 369 281 369 190C369 88 308 21 215 21C169 21 128 36 98 64C74 86 61 109 42 163L15 153C36 92 44 56 50 6C103 -12 147 -20 184 -20C307 -20 462 87 462 224ZM917 -3L917 27L865 30C810 33 800 44 800 96L800 700L559 598L566 548L716 614L716 96C716 44 705 33 651 30L595 27L595 -3C749 0 749 0 760 0C791 0 901 -3 917 -3Z" stroke="rgb(102,121,130)" stroke-opacity="1" stroke-width="8" fill="rgb(102,121,130)" fill-opacity="1"></path></g></g></g></g></g></g></g><g><g><g><g transform="matrix(1,0,0,1,311.54998779296875,36.56666564941406)"><path transform="matrix(0.017,0,0,-0.017,0,0)" d="M483 722L471 733C419 707 383 698 311 691L307 670L355 670C379 670 389 663 389 646C389 638 388 629 387 622L359 468C329 477 302 482 277 482C208 482 114 410 68 323C37 265 17 170 17 86C17 21 32 -11 61 -11C88 -11 125 6 159 33C213 77 246 116 313 217L290 126C279 82 274 50 274 24C274 3 283 -9 300 -9C317 -9 341 3 375 28L456 88L446 107L402 76C388 66 372 59 363 59C355 59 349 68 349 82C349 90 350 99 357 128ZM114 59C98 59 89 73 89 98C89 224 135 380 184 418C197 428 216 433 243 433C287 433 316 427 349 410L337 351C300 171 159 59 114 59Z" stroke="rgb(102,121,130)" stroke-opacity="1" stroke-width="8" fill="rgb(102,121,130)" fill-opacity="1"></path></g></g><g><g><g><g><g transform="matrix(1,0,0,1,320.54998779296875,39.550009155273436)"><path transform="matrix(0.0119,0,0,-0.0119,0,0)" d="M418 -3L418 27L366 30C311 33 301 44 301 96L301 700L60 598L67 548L217 614L217 96C217 44 206 33 152 30L96 27L96 -3C250 0 250 0 261 0C292 0 402 -3 418 -3ZM961 224C961 345 854 366 807 374C887 436 917 482 917 541C917 630 843 689 732 689C664 689 619 670 571 622L542 498L573 498L591 554C602 588 665 622 717 622C782 622 835 569 835 506C835 431 776 368 705 368C697 368 686 369 673 370L658 371L646 318L653 312C691 329 710 334 737 334C820 334 868 281 868 190C868 88 807 21 714 21C668 21 627 36 597 64C573 86 560 109 541 163L514 153C535 92 543 56 549 6C602 -12 646 -20 683 -20C806 -20 961 87 961 224Z" stroke="rgb(102,121,130)" stroke-opacity="1" stroke-width="8" fill="rgb(102,121,130)" fill-opacity="1"></path></g></g></g></g></g></g></g><g><g><g><g transform="matrix(1,0,0,1,235.54998779296875,39.56666564941406)"><path transform="matrix(0.017,0,0,-0.017,0,0)" d="M483 722L471 733C419 707 383 698 311 691L307 670L355 670C379 670 389 663 389 646C389 638 388 629 387 622L359 468C329 477 302 482 277 482C208 482 114 410 68 323C37 265 17 170 17 86C17 21 32 -11 61 -11C88 -11 125 6 159 33C213 77 246 116 313 217L290 126C279 82 274 50 274 24C274 3 283 -9 300 -9C317 -9 341 3 375 28L456 88L446 107L402 76C388 66 372 59 363 59C355 59 349 68 349 82C349 90 350 99 357 128ZM114 59C98 59 89 73 89 98C89 224 135 380 184 418C197 428 216 433 243 433C287 433 316 427 349 410L337 351C300 171 159 59 114 59Z" stroke="rgb(102,121,130)" stroke-opacity="1" stroke-width="8" fill="rgb(102,121,130)" fill-opacity="1"></path></g></g><g><g><g><g><g transform="matrix(1,0,0,1,244.54998779296875,42.550009155273436)"><path transform="matrix(0.0119,0,0,-0.0119,0,0)" d="M462 224C462 345 355 366 308 374C388 436 418 482 418 541C418 630 344 689 233 689C165 689 120 670 72 622L43 498L74 498L92 554C103 588 166 622 218 622C283 622 336 569 336 506C336 431 277 368 206 368C198 368 187 369 174 370L159 371L147 318L154 312C192 329 211 334 238 334C321 334 369 281 369 190C369 88 308 21 215 21C169 21 128 36 98 64C74 86 61 109 42 163L15 153C36 92 44 56 50 6C103 -12 147 -20 184 -20C307 -20 462 87 462 224ZM515 23L515 -3C702 -3 702 0 738 0C774 0 774 -3 967 -3L967 82C852 77 806 81 621 77L803 270C900 373 930 428 930 503C930 618 852 689 725 689C653 689 604 669 555 619L538 483L567 483L580 529C596 587 632 612 699 612C785 612 840 558 840 473C840 398 798 324 685 204Z" stroke="rgb(102,121,130)" stroke-opacity="1" stroke-width="8" fill="rgb(102,121,130)" fill-opacity="1"></path></g></g></g></g></g></g></g><g><g><g><g transform="matrix(1,0,0,1,160.54998779296875,41.56666564941406)"><path transform="matrix(0.017,0,0,-0.017,0,0)" d="M483 722L471 733C419 707 383 698 311 691L307 670L355 670C379 670 389 663 389 646C389 638 388 629 387 622L359 468C329 477 302 482 277 482C208 482 114 410 68 323C37 265 17 170 17 86C17 21 32 -11 61 -11C88 -11 125 6 159 33C213 77 246 116 313 217L290 126C279 82 274 50 274 24C274 3 283 -9 300 -9C317 -9 341 3 375 28L456 88L446 107L402 76C388 66 372 59 363 59C355 59 349 68 349 82C349 90 350 99 357 128ZM114 59C98 59 89 73 89 98C89 224 135 380 184 418C197 428 216 433 243 433C287 433 316 427 349 410L337 351C300 171 159 59 114 59Z" stroke="rgb(102,121,130)" stroke-opacity="1" stroke-width="8" fill="rgb(102,121,130)" fill-opacity="1"></path></g></g><g><g><g><g><g transform="matrix(1,0,0,1,169.54998779296875,44.550009155273436)"><path transform="matrix(0.0119,0,0,-0.0119,0,0)" d="M16 23L16 -3C203 -3 203 0 239 0C275 0 275 -3 468 -3L468 82C353 77 307 81 122 77L304 270C401 373 431 428 431 503C431 618 353 689 226 689C154 689 105 669 56 619L39 483L68 483L81 529C97 587 133 612 200 612C286 612 341 558 341 473C341 398 299 324 186 204ZM961 224C961 345 854 366 807 374C887 436 917 482 917 541C917 630 843 689 732 689C664 689 619 670 571 622L542 498L573 498L591 554C602 588 665 622 717 622C782 622 835 569 835 506C835 431 776 368 705 368C697 368 686 369 673 370L658 371L646 318L653 312C691 329 710 334 737 334C820 334 868 281 868 190C868 88 807 21 714 21C668 21 627 36 597 64C573 86 560 109 541 163L514 153C535 92 543 56 549 6C602 -12 646 -20 683 -20C806 -20 961 87 961 224Z" stroke="rgb(102,121,130)" stroke-opacity="1" stroke-width="8" fill="rgb(102,121,130)" fill-opacity="1"></path></g></g></g></g></g></g></g><g><g><g><g transform="matrix(1,0,0,1,40.54998779296875,101.56668090820312)"><path transform="matrix(0.017,0,0,-0.017,0,0)" d="M409 -15C458 -15 530 43 565 74L565 81C562 86 558 90 553 92C531 76 472 25 461 77C461 151 506 393 533 463L533 473C511 465 488 459 465 456L455 445C453 381 421 203 395 146C372 97 311 42 254 42C199 42 184 90 185 137C188 248 238 356 241 467C213 462 187 457 161 453C179 227 9 -91 53 -286C76 -285 109 -281 131 -273L131 -261C81 -173 121 -38 138 36L138 35C204 -77 344 37 395 104L395 101C387 65 354 -15 409 -15Z" stroke="rgb(102,121,130)" stroke-opacity="1" stroke-width="8" fill="rgb(102,121,130)" fill-opacity="1"></path></g></g><g><g transform="matrix(1,0,0,1,50.91668701171875,101.55001831054688)"><path transform="matrix(0.017,0,0,-0.017,0,0)" d="M146 266C146 526 243 632 301 700L282 726C225 675 60 542 60 266C60 159 85 58 133 -32C168 -99 200 -138 282 -215L301 -194C255 -137 146 -15 146 266Z" stroke="rgb(102,121,130)" stroke-opacity="1" stroke-width="8" fill="rgb(102,121,130)" fill-opacity="1"></path></g></g><g><g transform="matrix(1,0,0,1,56.56671142578125,101.56668090820312)"><path transform="matrix(0.017,0,0,-0.017,0,0)" d="M125 390L69 107C68 99 56 61 56 31C56 6 67 -9 86 -9C121 -9 156 11 234 74L265 99L255 117L210 86C181 66 161 56 150 56C141 56 136 64 136 76C136 102 150 183 179 328L192 390L299 390L310 440C272 436 238 434 200 434C216 528 227 577 245 631L234 646C214 634 187 622 156 610L131 440C87 419 61 408 43 403L41 390Z" stroke="rgb(102,121,130)" stroke-opacity="1" stroke-width="8" fill="rgb(102,121,130)" fill-opacity="1"></path></g></g><g><g transform="matrix(1,0,0,1,62.2166748046875,101.55001831054688)"><path transform="matrix(0.017,0,0,-0.017,0,0)" d="M51 726L32 700C87 636 187 526 187 266C187 -10 83 -131 32 -194L51 -215C104 -165 273 -23 273 265C273 542 108 675 51 726Z" stroke="rgb(102,121,130)" stroke-opacity="1" stroke-width="8" fill="rgb(102,121,130)" fill-opacity="1"></path></g></g></g></g><g><g><g><g transform="matrix(1,0,0,1,121.54998779296875,100.56668090820312)"><path transform="matrix(0.017,0,0,-0.017,0,0)" d="M176 -11C232 -11 347 62 390 125C431 186 465 296 465 371C465 438 442 482 406 482C364 482 311 456 259 409C218 374 198 348 162 289L186 408C189 425 191 440 191 452C191 471 183 482 169 482C148 482 110 461 36 408L8 388L15 368L47 389C75 407 86 412 95 412C105 412 112 403 112 389C112 381 110 361 108 351L50 8C40 -52 21 -143 1 -233L-7 -270L0 -276C21 -269 41 -264 73 -259L115 3C136 -4 158 -11 176 -11ZM143 165C165 293 272 424 355 424C381 424 393 402 393 356C393 275 353 156 300 80C280 51 248 36 207 36C176 36 151 43 125 59Z" stroke="rgb(102,121,130)" stroke-opacity="1" stroke-width="8" fill="rgb(102,121,130)" fill-opacity="1"></path></g></g><g><g transform="matrix(1,0,0,1,130.0333251953125,100.55001831054688)"><path transform="matrix(0.017,0,0,-0.017,0,0)" d="M146 266C146 526 243 632 301 700L282 726C225 675 60 542 60 266C60 159 85 58 133 -32C168 -99 200 -138 282 -215L301 -194C255 -137 146 -15 146 266Z" stroke="rgb(102,121,130)" stroke-opacity="1" stroke-width="8" fill="rgb(102,121,130)" fill-opacity="1"></path></g></g><g><g transform="matrix(1,0,0,1,135.683349609375,100.56668090820312)"><path transform="matrix(0.017,0,0,-0.017,0,0)" d="M125 390L69 107C68 99 56 61 56 31C56 6 67 -9 86 -9C121 -9 156 11 234 74L265 99L255 117L210 86C181 66 161 56 150 56C141 56 136 64 136 76C136 102 150 183 179 328L192 390L299 390L310 440C272 436 238 434 200 434C216 528 227 577 245 631L234 646C214 634 187 622 156 610L131 440C87 419 61 408 43 403L41 390Z" stroke="rgb(102,121,130)" stroke-opacity="1" stroke-width="8" fill="rgb(102,121,130)" fill-opacity="1"></path></g></g><g><g transform="matrix(1,0,0,1,141.33331298828125,100.55001831054688)"><path transform="matrix(0.017,0,0,-0.017,0,0)" d="M51 726L32 700C87 636 187 526 187 266C187 -10 83 -131 32 -194L51 -215C104 -165 273 -23 273 265C273 542 108 675 51 726Z" stroke="rgb(102,121,130)" stroke-opacity="1" stroke-width="8" fill="rgb(102,121,130)" fill-opacity="1"></path></g></g></g></g><g><g><g><g transform="matrix(1,0,0,1,207.54998779296875,105.56668090820312)"><path transform="matrix(0.017,0,0,-0.017,0,0)" d="M176 -11C232 -11 347 62 390 125C431 186 465 296 465 371C465 438 442 482 406 482C364 482 311 456 259 409C218 374 198 348 162 289L186 408C189 425 191 440 191 452C191 471 183 482 169 482C148 482 110 461 36 408L8 388L15 368L47 389C75 407 86 412 95 412C105 412 112 403 112 389C112 381 110 361 108 351L50 8C40 -52 21 -143 1 -233L-7 -270L0 -276C21 -269 41 -264 73 -259L115 3C136 -4 158 -11 176 -11ZM143 165C165 293 272 424 355 424C381 424 393 402 393 356C393 275 353 156 300 80C280 51 248 36 207 36C176 36 151 43 125 59Z" stroke="rgb(102,121,130)" stroke-opacity="1" stroke-width="8" fill="rgb(102,121,130)" fill-opacity="1"></path></g></g><g><g transform="matrix(1,0,0,1,216.03338623046875,105.55001831054688)"><path transform="matrix(0.017,0,0,-0.017,0,0)" d="M146 266C146 526 243 632 301 700L282 726C225 675 60 542 60 266C60 159 85 58 133 -32C168 -99 200 -138 282 -215L301 -194C255 -137 146 -15 146 266Z" stroke="rgb(102,121,130)" stroke-opacity="1" stroke-width="8" fill="rgb(102,121,130)" fill-opacity="1"></path></g></g><g><g transform="matrix(1,0,0,1,221.68341064453125,105.56668090820312)"><path transform="matrix(0.017,0,0,-0.017,0,0)" d="M125 390L69 107C68 99 56 61 56 31C56 6 67 -9 86 -9C121 -9 156 11 234 74L265 99L255 117L210 86C181 66 161 56 150 56C141 56 136 64 136 76C136 102 150 183 179 328L192 390L299 390L310 440C272 436 238 434 200 434C216 528 227 577 245 631L234 646C214 634 187 622 156 610L131 440C87 419 61 408 43 403L41 390Z" stroke="rgb(102,121,130)" stroke-opacity="1" stroke-width="8" fill="rgb(102,121,130)" fill-opacity="1"></path></g></g><g><g transform="matrix(1,0,0,1,230.73333740234375,105.56668090820312)"><path transform="matrix(0.017,0,0,-0.017,0,0)" d="M555 243L555 299L51 299L51 243Z" stroke="rgb(102,121,130)" stroke-opacity="1" stroke-width="8" fill="rgb(102,121,130)" fill-opacity="1"></path></g></g><g><g transform="matrix(1,0,0,1,244.41668701171875,105.56668090820312)"><path transform="matrix(0.017,0,0,-0.017,0,0)" d="M483 722L471 733C419 707 383 698 311 691L307 670L355 670C379 670 389 663 389 646C389 638 388 629 387 622L359 468C329 477 302 482 277 482C208 482 114 410 68 323C37 265 17 170 17 86C17 21 32 -11 61 -11C88 -11 125 6 159 33C213 77 246 116 313 217L290 126C279 82 274 50 274 24C274 3 283 -9 300 -9C317 -9 341 3 375 28L456 88L446 107L402 76C388 66 372 59 363 59C355 59 349 68 349 82C349 90 350 99 357 128ZM114 59C98 59 89 73 89 98C89 224 135 380 184 418C197 428 216 433 243 433C287 433 316 427 349 410L337 351C300 171 159 59 114 59Z" stroke="rgb(102,121,130)" stroke-opacity="1" stroke-width="8" fill="rgb(102,121,130)" fill-opacity="1"></path></g></g><g><g transform="matrix(1,0,0,1,252.89996337890625,105.55001831054688)"><path transform="matrix(0.017,0,0,-0.017,0,0)" d="M51 726L32 700C87 636 187 526 187 266C187 -10 83 -131 32 -194L51 -215C104 -165 273 -23 273 265C273 542 108 675 51 726Z" stroke="rgb(102,121,130)" stroke-opacity="1" stroke-width="8" fill="rgb(102,121,130)" fill-opacity="1"></path></g></g></g></g><g><g><g><g transform="matrix(1,0,0,1,351.54998779296875,107.56668090820312)"><path transform="matrix(0.017,0,0,-0.017,0,0)" d="M-33 6L-28 -4C79 0 185 0 292 0C393 0 494 -1 594 -4L602 6C560 116 534 238 504 354C475 466 442 580 424 697L399 697C336 587 53 127 -33 6ZM482 37L50 37C148 215 249 389 356 564L363 564C408 391 449 215 482 37Z" stroke="rgb(102,121,130)" stroke-opacity="1" stroke-width="8" fill="rgb(102,121,130)" fill-opacity="1"></path></g></g><g><g transform="matrix(1,0,0,1,363.25006103515625,107.55001831054688)"><path transform="matrix(0.017,0,0,-0.017,0,0)" d="M146 266C146 526 243 632 301 700L282 726C225 675 60 542 60 266C60 159 85 58 133 -32C168 -99 200 -138 282 -215L301 -194C255 -137 146 -15 146 266Z" stroke="rgb(102,121,130)" stroke-opacity="1" stroke-width="8" fill="rgb(102,121,130)" fill-opacity="1"></path></g></g><g><g transform="matrix(1,0,0,1,368.89996337890625,107.56668090820312)"><path transform="matrix(0.017,0,0,-0.017,0,0)" d="M125 390L69 107C68 99 56 61 56 31C56 6 67 -9 86 -9C121 -9 156 11 234 74L265 99L255 117L210 86C181 66 161 56 150 56C141 56 136 64 136 76C136 102 150 183 179 328L192 390L299 390L310 440C272 436 238 434 200 434C216 528 227 577 245 631L234 646C214 634 187 622 156 610L131 440C87 419 61 408 43 403L41 390Z" stroke="rgb(102,121,130)" stroke-opacity="1" stroke-width="8" fill="rgb(102,121,130)" fill-opacity="1"></path></g></g><g><g transform="matrix(1,0,0,1,374.54998779296875,107.55001831054688)"><path transform="matrix(0.017,0,0,-0.017,0,0)" d="M51 726L32 700C87 636 187 526 187 266C187 -10 83 -131 32 -194L51 -215C104 -165 273 -23 273 265C273 542 108 675 51 726Z" stroke="rgb(102,121,130)" stroke-opacity="1" stroke-width="8" fill="rgb(102,121,130)" fill-opacity="1"></path></g></g></g></g><g><g><g><g transform="matrix(1,0,0,1,69.54998779296875,172.56668090820312)"><path transform="matrix(0.017,0,0,-0.017,0,0)" d="M236 722L224 733C179 711 138 697 64 691L60 670L108 670C126 670 142 667 142 647C142 641 142 632 140 622L98 388C78 272 36 80 10 2L17 -9L86 7C94 64 108 164 148 236C193 317 296 414 338 414C349 414 360 407 360 393C360 375 355 342 345 303L294 107C288 85 281 55 281 31C281 6 291 -9 312 -9C344 -9 412 41 471 85L461 103L435 86C412 71 386 56 374 56C367 56 361 65 361 76C361 88 364 101 368 116L432 372C438 398 443 423 443 447C443 464 437 482 411 482C376 482 299 437 231 374C198 343 172 308 144 273L140 275Z" stroke="rgb(102,121,130)" stroke-opacity="1" stroke-width="8" fill="rgb(102,121,130)" fill-opacity="1"></path></g></g><g><g transform="matrix(1,0,0,1,78.0333251953125,172.55001831054688)"><path transform="matrix(0.017,0,0,-0.017,0,0)" d="M146 266C146 526 243 632 301 700L282 726C225 675 60 542 60 266C60 159 85 58 133 -32C168 -99 200 -138 282 -215L301 -194C255 -137 146 -15 146 266Z" stroke="rgb(102,121,130)" stroke-opacity="1" stroke-width="8" fill="rgb(102,121,130)" fill-opacity="1"></path></g></g><g><g transform="matrix(1,0,0,1,83.683349609375,172.56668090820312)"><path transform="matrix(0.017,0,0,-0.017,0,0)" d="M125 390L69 107C68 99 56 61 56 31C56 6 67 -9 86 -9C121 -9 156 11 234 74L265 99L255 117L210 86C181 66 161 56 150 56C141 56 136 64 136 76C136 102 150 183 179 328L192 390L299 390L310 440C272 436 238 434 200 434C216 528 227 577 245 631L234 646C214 634 187 622 156 610L131 440C87 419 61 408 43 403L41 390Z" stroke="rgb(102,121,130)" stroke-opacity="1" stroke-width="8" fill="rgb(102,121,130)" fill-opacity="1"></path></g></g><g><g transform="matrix(1,0,0,1,89.33331298828125,172.55001831054688)"><path transform="matrix(0.017,0,0,-0.017,0,0)" d="M51 726L32 700C87 636 187 526 187 266C187 -10 83 -131 32 -194L51 -215C104 -165 273 -23 273 265C273 542 108 675 51 726Z" stroke="rgb(102,121,130)" stroke-opacity="1" stroke-width="8" fill="rgb(102,121,130)" fill-opacity="1"></path></g></g></g></g><g><g><g><g transform="matrix(1,0,0,1,162.54998779296875,171.56668090820312)"><path transform="matrix(0.017,0,0,-0.017,0,0)" d="M385 458C342 475 313 482 284 482C209 482 121 394 103 374C63 327 24 181 24 78C24 19 36 -11 60 -11C82 -11 101 -3 133 19C180 51 259 121 308 209L232 -205C227 -229 217 -249 205 -262L214 -276C245 -268 276 -262 300 -259C304 -205 310 -150 319 -100L405 356C416 417 422 443 432 474L418 480ZM118 59C104 59 96 80 96 113C96 209 139 359 181 409C193 424 222 433 254 433C282 433 303 427 351 406L330 311C301 174 160 59 118 59Z" stroke="rgb(102,121,130)" stroke-opacity="1" stroke-width="8" fill="rgb(102,121,130)" fill-opacity="1"></path></g></g><g><g transform="matrix(1,0,0,1,170.4000244140625,171.55001831054688)"><path transform="matrix(0.017,0,0,-0.017,0,0)" d="M146 266C146 526 243 632 301 700L282 726C225 675 60 542 60 266C60 159 85 58 133 -32C168 -99 200 -138 282 -215L301 -194C255 -137 146 -15 146 266Z" stroke="rgb(102,121,130)" stroke-opacity="1" stroke-width="8" fill="rgb(102,121,130)" fill-opacity="1"></path></g></g><g><g transform="matrix(1,0,0,1,176.04998779296875,171.56668090820312)"><path transform="matrix(0.017,0,0,-0.017,0,0)" d="M125 390L69 107C68 99 56 61 56 31C56 6 67 -9 86 -9C121 -9 156 11 234 74L265 99L255 117L210 86C181 66 161 56 150 56C141 56 136 64 136 76C136 102 150 183 179 328L192 390L299 390L310 440C272 436 238 434 200 434C216 528 227 577 245 631L234 646C214 634 187 622 156 610L131 440C87 419 61 408 43 403L41 390Z" stroke="rgb(102,121,130)" stroke-opacity="1" stroke-width="8" fill="rgb(102,121,130)" fill-opacity="1"></path></g></g><g><g transform="matrix(1,0,0,1,181.70001220703125,171.55001831054688)"><path transform="matrix(0.017,0,0,-0.017,0,0)" d="M51 726L32 700C87 636 187 526 187 266C187 -10 83 -131 32 -194L51 -215C104 -165 273 -23 273 265C273 542 108 675 51 726Z" stroke="rgb(102,121,130)" stroke-opacity="1" stroke-width="8" fill="rgb(102,121,130)" fill-opacity="1"></path></g></g></g></g><g><g><g><g transform="matrix(1,0,0,1,249.54998779296875,171.56668090820312)"><path transform="matrix(0.017,0,0,-0.017,0,0)" d="M385 458C342 475 313 482 284 482C209 482 121 394 103 374C63 327 24 181 24 78C24 19 36 -11 60 -11C82 -11 101 -3 133 19C180 51 259 121 308 209L232 -205C227 -229 217 -249 205 -262L214 -276C245 -268 276 -262 300 -259C304 -205 310 -150 319 -100L405 356C416 417 422 443 432 474L418 480ZM118 59C104 59 96 80 96 113C96 209 139 359 181 409C193 424 222 433 254 433C282 433 303 427 351 406L330 311C301 174 160 59 118 59Z" stroke="rgb(102,121,130)" stroke-opacity="1" stroke-width="8" fill="rgb(102,121,130)" fill-opacity="1"></path></g></g><g><g transform="matrix(1,0,0,1,257.39996337890625,171.55001831054688)"><path transform="matrix(0.017,0,0,-0.017,0,0)" d="M146 266C146 526 243 632 301 700L282 726C225 675 60 542 60 266C60 159 85 58 133 -32C168 -99 200 -138 282 -215L301 -194C255 -137 146 -15 146 266Z" stroke="rgb(102,121,130)" stroke-opacity="1" stroke-width="8" fill="rgb(102,121,130)" fill-opacity="1"></path></g></g><g><g transform="matrix(1,0,0,1,263.04998779296875,171.56668090820312)"><path transform="matrix(0.017,0,0,-0.017,0,0)" d="M125 390L69 107C68 99 56 61 56 31C56 6 67 -9 86 -9C121 -9 156 11 234 74L265 99L255 117L210 86C181 66 161 56 150 56C141 56 136 64 136 76C136 102 150 183 179 328L192 390L299 390L310 440C272 436 238 434 200 434C216 528 227 577 245 631L234 646C214 634 187 622 156 610L131 440C87 419 61 408 43 403L41 390Z" stroke="rgb(102,121,130)" stroke-opacity="1" stroke-width="8" fill="rgb(102,121,130)" fill-opacity="1"></path></g></g><g><g transform="matrix(1,0,0,1,272.10003662109375,171.56668090820312)"><path transform="matrix(0.017,0,0,-0.017,0,0)" d="M555 243L555 299L51 299L51 243Z" stroke="rgb(102,121,130)" stroke-opacity="1" stroke-width="8" fill="rgb(102,121,130)" fill-opacity="1"></path></g></g><g><g transform="matrix(1,0,0,1,285.78338623046875,171.56668090820312)"><path transform="matrix(0.017,0,0,-0.017,0,0)" d="M483 722L471 733C419 707 383 698 311 691L307 670L355 670C379 670 389 663 389 646C389 638 388 629 387 622L359 468C329 477 302 482 277 482C208 482 114 410 68 323C37 265 17 170 17 86C17 21 32 -11 61 -11C88 -11 125 6 159 33C213 77 246 116 313 217L290 126C279 82 274 50 274 24C274 3 283 -9 300 -9C317 -9 341 3 375 28L456 88L446 107L402 76C388 66 372 59 363 59C355 59 349 68 349 82C349 90 350 99 357 128ZM114 59C98 59 89 73 89 98C89 224 135 380 184 418C197 428 216 433 243 433C287 433 316 427 349 410L337 351C300 171 159 59 114 59Z" stroke="rgb(102,121,130)" stroke-opacity="1" stroke-width="8" fill="rgb(102,121,130)" fill-opacity="1"></path></g></g><g><g transform="matrix(1,0,0,1,294.26666259765625,171.55001831054688)"><path transform="matrix(0.017,0,0,-0.017,0,0)" d="M51 726L32 700C87 636 187 526 187 266C187 -10 83 -131 32 -194L51 -215C104 -165 273 -23 273 265C273 542 108 675 51 726Z" stroke="rgb(102,121,130)" stroke-opacity="1" stroke-width="8" fill="rgb(102,121,130)" fill-opacity="1"></path></g></g></g></g><g><g><g><g transform="matrix(1,0,0,1,442.54998779296875,109.56668090820312)"><path transform="matrix(0.017,0,0,-0.017,0,0)" d="M-33 6L-28 -4C79 0 185 0 292 0C393 0 494 -1 594 -4L602 6C560 116 534 238 504 354C475 466 442 580 424 697L399 697C336 587 53 127 -33 6ZM482 37L50 37C148 215 249 389 356 564L363 564C408 391 449 215 482 37Z" stroke="rgb(102,121,130)" stroke-opacity="1" stroke-width="8" fill="rgb(102,121,130)" fill-opacity="1"></path></g></g><g><g transform="matrix(1,0,0,1,454.25006103515625,109.55001831054688)"><path transform="matrix(0.017,0,0,-0.017,0,0)" d="M146 266C146 526 243 632 301 700L282 726C225 675 60 542 60 266C60 159 85 58 133 -32C168 -99 200 -138 282 -215L301 -194C255 -137 146 -15 146 266Z" stroke="rgb(102,121,130)" stroke-opacity="1" stroke-width="8" fill="rgb(102,121,130)" fill-opacity="1"></path></g></g><g><g transform="matrix(1,0,0,1,459.89996337890625,109.56668090820312)"><path transform="matrix(0.017,0,0,-0.017,0,0)" d="M125 390L69 107C68 99 56 61 56 31C56 6 67 -9 86 -9C121 -9 156 11 234 74L265 99L255 117L210 86C181 66 161 56 150 56C141 56 136 64 136 76C136 102 150 183 179 328L192 390L299 390L310 440C272 436 238 434 200 434C216 528 227 577 245 631L234 646C214 634 187 622 156 610L131 440C87 419 61 408 43 403L41 390Z" stroke="rgb(102,121,130)" stroke-opacity="1" stroke-width="8" fill="rgb(102,121,130)" fill-opacity="1"></path></g></g><g><g transform="matrix(1,0,0,1,468.95001220703125,109.56668090820312)"><path transform="matrix(0.017,0,0,-0.017,0,0)" d="M555 243L555 299L51 299L51 243Z" stroke="rgb(102,121,130)" stroke-opacity="1" stroke-width="8" fill="rgb(102,121,130)" fill-opacity="1"></path></g></g><g><g transform="matrix(1,0,0,1,482.63336181640625,109.56668090820312)"><path transform="matrix(0.017,0,0,-0.017,0,0)" d="M483 722L471 733C419 707 383 698 311 691L307 670L355 670C379 670 389 663 389 646C389 638 388 629 387 622L359 468C329 477 302 482 277 482C208 482 114 410 68 323C37 265 17 170 17 86C17 21 32 -11 61 -11C88 -11 125 6 159 33C213 77 246 116 313 217L290 126C279 82 274 50 274 24C274 3 283 -9 300 -9C317 -9 341 3 375 28L456 88L446 107L402 76C388 66 372 59 363 59C355 59 349 68 349 82C349 90 350 99 357 128ZM114 59C98 59 89 73 89 98C89 224 135 380 184 418C197 428 216 433 243 433C287 433 316 427 349 410L337 351C300 171 159 59 114 59Z" stroke="rgb(102,121,130)" stroke-opacity="1" stroke-width="8" fill="rgb(102,121,130)" fill-opacity="1"></path></g></g><g><g transform="matrix(1,0,0,1,491.11663818359375,109.55001831054688)"><path transform="matrix(0.017,0,0,-0.017,0,0)" d="M51 726L32 700C87 636 187 526 187 266C187 -10 83 -131 32 -194L51 -215C104 -165 273 -23 273 265C273 542 108 675 51 726Z" stroke="rgb(102,121,130)" stroke-opacity="1" stroke-width="8" fill="rgb(102,121,130)" fill-opacity="1"></path></g></g></g></g><g><g><g><g transform="matrix(1,0,0,1,349.54998779296875,172.56668090820312)"><path transform="matrix(0.017,0,0,-0.017,0,0)" d="M622 285C624 428 505 474 382 473C398 548 407 624 432 699L432 705C418 700 404 693 389 684L354 473C184 474 30 367 27 185C24 37 142 -8 268 -16L229 -289C249 -282 267 -274 282 -261C283 -179 288 -98 299 -16C481 -3 618 87 622 285ZM539 273C537 130 451 11 301 6L377 449C487 447 541 380 539 273ZM349 449L270 5C155 14 106 73 108 187C111 336 196 444 349 449Z" stroke="rgb(102,121,130)" stroke-opacity="1" stroke-width="8" fill="rgb(102,121,130)" fill-opacity="1"></path></g></g><g><g><g><g><g><g><g><text x="361.36663818359375" y="166.39999389648438" style="white-space:pre;stroke:none;fill:rgb(102,121,130);fill-opacity:1;font-size:10.5px;font-family:Arial, Helvetica, sans-serif;font-weight:400;font-style:normal;dominant-baseline:text-before-edge;text-decoration:rgb(102, 121, 130);">acc</text></g></g></g></g></g></g></g><g><g transform="matrix(1,0,0,1,378.71661376953125,172.55001831054688)"><path transform="matrix(0.017,0,0,-0.017,0,0)" d="M146 266C146 526 243 632 301 700L282 726C225 675 60 542 60 266C60 159 85 58 133 -32C168 -99 200 -138 282 -215L301 -194C255 -137 146 -15 146 266Z" stroke="rgb(102,121,130)" stroke-opacity="1" stroke-width="8" fill="rgb(102,121,130)" fill-opacity="1"></path></g></g><g><g transform="matrix(1,0,0,1,384.36663818359375,172.56668090820312)"><path transform="matrix(0.017,0,0,-0.017,0,0)" d="M125 390L69 107C68 99 56 61 56 31C56 6 67 -9 86 -9C121 -9 156 11 234 74L265 99L255 117L210 86C181 66 161 56 150 56C141 56 136 64 136 76C136 102 150 183 179 328L192 390L299 390L310 440C272 436 238 434 200 434C216 528 227 577 245 631L234 646C214 634 187 622 156 610L131 440C87 419 61 408 43 403L41 390Z" stroke="rgb(102,121,130)" stroke-opacity="1" stroke-width="8" fill="rgb(102,121,130)" fill-opacity="1"></path></g></g><g><g transform="matrix(1,0,0,1,390.01666259765625,172.55001831054688)"><path transform="matrix(0.017,0,0,-0.017,0,0)" d="M51 726L32 700C87 636 187 526 187 266C187 -10 83 -131 32 -194L51 -215C104 -165 273 -23 273 265C273 542 108 675 51 726Z" stroke="rgb(102,121,130)" stroke-opacity="1" stroke-width="8" fill="rgb(102,121,130)" fill-opacity="1"></path></g></g></g></g><g><g><g><g transform="matrix(1,0,0,1,440.54998779296875,176.56668090820312)"><path transform="matrix(0.017,0,0,-0.017,0,0)" d="M622 285C624 428 505 474 382 473C398 548 407 624 432 699L432 705C418 700 404 693 389 684L354 473C184 474 30 367 27 185C24 37 142 -8 268 -16L229 -289C249 -282 267 -274 282 -261C283 -179 288 -98 299 -16C481 -3 618 87 622 285ZM539 273C537 130 451 11 301 6L377 449C487 447 541 380 539 273ZM349 449L270 5C155 14 106 73 108 187C111 336 196 444 349 449Z" stroke="rgb(102,121,130)" stroke-opacity="1" stroke-width="8" fill="rgb(102,121,130)" fill-opacity="1"></path></g></g><g><g><g><g><g><g><g><text x="452.36663818359375" y="170.39999389648438" style="white-space:pre;stroke:none;fill:rgb(102,121,130);fill-opacity:1;font-size:10.5px;font-family:Arial, Helvetica, sans-serif;font-weight:400;font-style:normal;dominant-baseline:text-before-edge;text-decoration:rgb(102, 121, 130);">opt</text></g></g></g></g></g></g></g><g><g transform="matrix(1,0,0,1,467.96661376953125,176.55001831054688)"><path transform="matrix(0.017,0,0,-0.017,0,0)" d="M146 266C146 526 243 632 301 700L282 726C225 675 60 542 60 266C60 159 85 58 133 -32C168 -99 200 -138 282 -215L301 -194C255 -137 146 -15 146 266Z" stroke="rgb(102,121,130)" stroke-opacity="1" stroke-width="8" fill="rgb(102,121,130)" fill-opacity="1"></path></g></g><g><g transform="matrix(1,0,0,1,473.61663818359375,176.56668090820312)"><path transform="matrix(0.017,0,0,-0.017,0,0)" d="M125 390L69 107C68 99 56 61 56 31C56 6 67 -9 86 -9C121 -9 156 11 234 74L265 99L255 117L210 86C181 66 161 56 150 56C141 56 136 64 136 76C136 102 150 183 179 328L192 390L299 390L310 440C272 436 238 434 200 434C216 528 227 577 245 631L234 646C214 634 187 622 156 610L131 440C87 419 61 408 43 403L41 390Z" stroke="rgb(102,121,130)" stroke-opacity="1" stroke-width="8" fill="rgb(102,121,130)" fill-opacity="1"></path></g></g><g><g transform="matrix(1,0,0,1,479.26666259765625,176.55001831054688)"><path transform="matrix(0.017,0,0,-0.017,0,0)" d="M51 726L32 700C87 636 187 526 187 266C187 -10 83 -131 32 -194L51 -215C104 -165 273 -23 273 265C273 542 108 675 51 726Z" stroke="rgb(102,121,130)" stroke-opacity="1" stroke-width="8" fill="rgb(102,121,130)" fill-opacity="1"></path></g></g></g></g><g><g><g><g transform="matrix(1,0,0,1,519.5499877929688,175.56668090820312)"><path transform="matrix(0.017,0,0,-0.017,0,0)" d="M622 285C624 428 505 474 382 473C398 548 407 624 432 699L432 705C418 700 404 693 389 684L354 473C184 474 30 367 27 185C24 37 142 -8 268 -16L229 -289C249 -282 267 -274 282 -261C283 -179 288 -98 299 -16C481 -3 618 87 622 285ZM539 273C537 130 451 11 301 6L377 449C487 447 541 380 539 273ZM349 449L270 5C155 14 106 73 108 187C111 336 196 444 349 449Z" stroke="rgb(102,121,130)" stroke-opacity="1" stroke-width="8" fill="rgb(102,121,130)" fill-opacity="1"></path></g></g><g><g><g><g><g><g><g><text x="531.3666381835938" y="169.39999389648438" style="white-space:pre;stroke:none;fill:rgb(102,121,130);fill-opacity:1;font-size:10.5px;font-family:Arial, Helvetica, sans-serif;font-weight:400;font-style:normal;dominant-baseline:text-before-edge;text-decoration:rgb(102, 121, 130);">el</text></g></g></g></g></g></g></g><g><g transform="matrix(1,0,0,1,540.5499877929688,175.55001831054688)"><path transform="matrix(0.017,0,0,-0.017,0,0)" d="M146 266C146 526 243 632 301 700L282 726C225 675 60 542 60 266C60 159 85 58 133 -32C168 -99 200 -138 282 -215L301 -194C255 -137 146 -15 146 266Z" stroke="rgb(102,121,130)" stroke-opacity="1" stroke-width="8" fill="rgb(102,121,130)" fill-opacity="1"></path></g></g><g><g transform="matrix(1,0,0,1,546.2000122070312,175.56668090820312)"><path transform="matrix(0.017,0,0,-0.017,0,0)" d="M125 390L69 107C68 99 56 61 56 31C56 6 67 -9 86 -9C121 -9 156 11 234 74L265 99L255 117L210 86C181 66 161 56 150 56C141 56 136 64 136 76C136 102 150 183 179 328L192 390L299 390L310 440C272 436 238 434 200 434C216 528 227 577 245 631L234 646C214 634 187 622 156 610L131 440C87 419 61 408 43 403L41 390Z" stroke="rgb(102,121,130)" stroke-opacity="1" stroke-width="8" fill="rgb(102,121,130)" fill-opacity="1"></path></g></g><g><g transform="matrix(1,0,0,1,551.8500366210938,175.55001831054688)"><path transform="matrix(0.017,0,0,-0.017,0,0)" d="M51 726L32 700C87 636 187 526 187 266C187 -10 83 -131 32 -194L51 -215C104 -165 273 -23 273 265C273 542 108 675 51 726Z" stroke="rgb(102,121,130)" stroke-opacity="1" stroke-width="8" fill="rgb(102,121,130)" fill-opacity="1"></path></g></g></g></g><g><g><g><g transform="matrix(1,0,0,1,51.54998779296875,259.5666809082031)"><path transform="matrix(0.017,0,0,-0.017,0,0)" d="M31 148C26 97 20 62 9 16C47 -2 81 -11 116 -11C165 -11 211 7 262 47C313 87 334 124 334 174C334 228 302 257 228 271L185 279C125 290 106 307 106 348C106 401 151 442 208 442C249 442 287 424 303 397L303 342L326 342C330 377 334 404 345 455C306 474 278 482 245 482C193 482 132 452 84 404C58 377 47 352 47 316C47 260 78 228 144 215L207 203C251 195 267 177 267 138C267 73 221 29 150 29C115 29 84 40 56 64L56 148Z" stroke="rgb(102,121,130)" stroke-opacity="1" stroke-width="8" fill="rgb(102,121,130)" fill-opacity="1"></path></g></g><g><g transform="matrix(1,0,0,1,58.1500244140625,259.5500183105469)"><path transform="matrix(0.017,0,0,-0.017,0,0)" d="M146 266C146 526 243 632 301 700L282 726C225 675 60 542 60 266C60 159 85 58 133 -32C168 -99 200 -138 282 -215L301 -194C255 -137 146 -15 146 266Z" stroke="rgb(102,121,130)" stroke-opacity="1" stroke-width="8" fill="rgb(102,121,130)" fill-opacity="1"></path></g></g><g><g transform="matrix(1,0,0,1,63.79998779296875,259.5666809082031)"><path transform="matrix(0.017,0,0,-0.017,0,0)" d="M125 390L69 107C68 99 56 61 56 31C56 6 67 -9 86 -9C121 -9 156 11 234 74L265 99L255 117L210 86C181 66 161 56 150 56C141 56 136 64 136 76C136 102 150 183 179 328L192 390L299 390L310 440C272 436 238 434 200 434C216 528 227 577 245 631L234 646C214 634 187 622 156 610L131 440C87 419 61 408 43 403L41 390Z" stroke="rgb(102,121,130)" stroke-opacity="1" stroke-width="8" fill="rgb(102,121,130)" fill-opacity="1"></path></g></g><g><g transform="matrix(1,0,0,1,69.45001220703125,259.5500183105469)"><path transform="matrix(0.017,0,0,-0.017,0,0)" d="M51 726L32 700C87 636 187 526 187 266C187 -10 83 -131 32 -194L51 -215C104 -165 273 -23 273 265C273 542 108 675 51 726Z" stroke="rgb(102,121,130)" stroke-opacity="1" stroke-width="8" fill="rgb(102,121,130)" fill-opacity="1"></path></g></g></g></g><g><g><g><g transform="matrix(1,0,0,1,127.54998779296875,262.7666931152344)"><path transform="matrix(0.017,0,0,-0.017,0,0)" d="M31 148C26 97 20 62 9 16C47 -2 81 -11 116 -11C165 -11 211 7 262 47C313 87 334 124 334 174C334 228 302 257 228 271L185 279C125 290 106 307 106 348C106 401 151 442 208 442C249 442 287 424 303 397L303 342L326 342C330 377 334 404 345 455C306 474 278 482 245 482C193 482 132 452 84 404C58 377 47 352 47 316C47 260 78 228 144 215L207 203C251 195 267 177 267 138C267 73 221 29 150 29C115 29 84 40 56 64L56 148Z" stroke="rgb(102,121,130)" stroke-opacity="1" stroke-width="8" fill="rgb(102,121,130)" fill-opacity="1"></path></g></g><g><g><g><g><g><g><g><text x="135.1500244140625" y="245.30001831054688" style="white-space:pre;stroke:none;fill:rgb(102,121,130);fill-opacity:1;font-size:10.5px;font-family:Arial, Helvetica, sans-serif;font-weight:400;font-style:normal;dominant-baseline:text-before-edge;text-decoration:rgb(102, 121, 130);">SB</text></g></g></g></g></g></g></g><g><g transform="matrix(1,0,0,1,150.16668701171875,262.75)"><path transform="matrix(0.017,0,0,-0.017,0,0)" d="M146 266C146 526 243 632 301 700L282 726C225 675 60 542 60 266C60 159 85 58 133 -32C168 -99 200 -138 282 -215L301 -194C255 -137 146 -15 146 266Z" stroke="rgb(102,121,130)" stroke-opacity="1" stroke-width="8" fill="rgb(102,121,130)" fill-opacity="1"></path></g></g><g><g transform="matrix(1,0,0,1,155.81671142578125,262.7666931152344)"><path transform="matrix(0.017,0,0,-0.017,0,0)" d="M125 390L69 107C68 99 56 61 56 31C56 6 67 -9 86 -9C121 -9 156 11 234 74L265 99L255 117L210 86C181 66 161 56 150 56C141 56 136 64 136 76C136 102 150 183 179 328L192 390L299 390L310 440C272 436 238 434 200 434C216 528 227 577 245 631L234 646C214 634 187 622 156 610L131 440C87 419 61 408 43 403L41 390Z" stroke="rgb(102,121,130)" stroke-opacity="1" stroke-width="8" fill="rgb(102,121,130)" fill-opacity="1"></path></g></g><g><g transform="matrix(1,0,0,1,161.4666748046875,262.75)"><path transform="matrix(0.017,0,0,-0.017,0,0)" d="M51 726L32 700C87 636 187 526 187 266C187 -10 83 -131 32 -194L51 -215C104 -165 273 -23 273 265C273 542 108 675 51 726Z" stroke="rgb(102,121,130)" stroke-opacity="1" stroke-width="8" fill="rgb(102,121,130)" fill-opacity="1"></path></g></g></g></g><g><g><g><g transform="matrix(1,0,0,1,228.54998779296875,265.5666809082031)"><path transform="matrix(0.017,0,0,-0.017,0,0)" d="M63 278L63 281C118 423 114 402 279 408C237 307 190 180 187 71C183 -74 360 -4 411 59L411 65L397 75L397 74C374 56 347 33 318 33C198 33 313 370 326 412C371 413 431 411 476 420L476 463L108 463C81 448 56 310 48 278Z" stroke="rgb(102,121,130)" stroke-opacity="1" stroke-width="8" fill="rgb(102,121,130)" fill-opacity="1"></path></g></g><g><g transform="matrix(1,0,0,1,237.36663818359375,265.5500183105469)"><path transform="matrix(0.017,0,0,-0.017,0,0)" d="M146 266C146 526 243 632 301 700L282 726C225 675 60 542 60 266C60 159 85 58 133 -32C168 -99 200 -138 282 -215L301 -194C255 -137 146 -15 146 266Z" stroke="rgb(102,121,130)" stroke-opacity="1" stroke-width="8" fill="rgb(102,121,130)" fill-opacity="1"></path></g></g><g><g transform="matrix(1,0,0,1,243.01666259765625,265.5666809082031)"><path transform="matrix(0.017,0,0,-0.017,0,0)" d="M125 390L69 107C68 99 56 61 56 31C56 6 67 -9 86 -9C121 -9 156 11 234 74L265 99L255 117L210 86C181 66 161 56 150 56C141 56 136 64 136 76C136 102 150 183 179 328L192 390L299 390L310 440C272 436 238 434 200 434C216 528 227 577 245 631L234 646C214 634 187 622 156 610L131 440C87 419 61 408 43 403L41 390Z" stroke="rgb(102,121,130)" stroke-opacity="1" stroke-width="8" fill="rgb(102,121,130)" fill-opacity="1"></path></g></g><g><g transform="matrix(1,0,0,1,248.66668701171875,265.5500183105469)"><path transform="matrix(0.017,0,0,-0.017,0,0)" d="M51 726L32 700C87 636 187 526 187 266C187 -10 83 -131 32 -194L51 -215C104 -165 273 -23 273 265C273 542 108 675 51 726Z" stroke="rgb(102,121,130)" stroke-opacity="1" stroke-width="8" fill="rgb(102,121,130)" fill-opacity="1"></path></g></g></g></g><g><g><g><g transform="matrix(1,0,0,1,326.54998779296875,267.5666809082031)"><path transform="matrix(0.017,0,0,-0.017,0,0)" d="M224 -15C292 -15 346 9 397 55L386 67C310 3 129 -2 132 131C135 235 247 265 341 235C345 238 340 218 346 277C278 259 193 267 196 348C198 409 249 457 309 457C365 457 400 417 385 358L400 358L446 434C347 501 147 489 133 352C128 300 166 274 211 262L211 254C128 247 56 205 55 113C53 12 138 -15 224 -15Z" stroke="rgb(102,121,130)" stroke-opacity="1" stroke-width="8" fill="rgb(102,121,130)" fill-opacity="1"></path></g></g><g><g transform="matrix(1,0,0,1,334.93341064453125,267.5500183105469)"><path transform="matrix(0.017,0,0,-0.017,0,0)" d="M146 266C146 526 243 632 301 700L282 726C225 675 60 542 60 266C60 159 85 58 133 -32C168 -99 200 -138 282 -215L301 -194C255 -137 146 -15 146 266Z" stroke="rgb(102,121,130)" stroke-opacity="1" stroke-width="8" fill="rgb(102,121,130)" fill-opacity="1"></path></g></g><g><g transform="matrix(1,0,0,1,340.58331298828125,267.5666809082031)"><path transform="matrix(0.017,0,0,-0.017,0,0)" d="M125 390L69 107C68 99 56 61 56 31C56 6 67 -9 86 -9C121 -9 156 11 234 74L265 99L255 117L210 86C181 66 161 56 150 56C141 56 136 64 136 76C136 102 150 183 179 328L192 390L299 390L310 440C272 436 238 434 200 434C216 528 227 577 245 631L234 646C214 634 187 622 156 610L131 440C87 419 61 408 43 403L41 390Z" stroke="rgb(102,121,130)" stroke-opacity="1" stroke-width="8" fill="rgb(102,121,130)" fill-opacity="1"></path></g></g><g><g transform="matrix(1,0,0,1,346.23333740234375,267.5500183105469)"><path transform="matrix(0.017,0,0,-0.017,0,0)" d="M51 726L32 700C87 636 187 526 187 266C187 -10 83 -131 32 -194L51 -215C104 -165 273 -23 273 265C273 542 108 675 51 726Z" stroke="rgb(102,121,130)" stroke-opacity="1" stroke-width="8" fill="rgb(102,121,130)" fill-opacity="1"></path></g></g></g></g><g><g><g><g transform="matrix(1,0,0,1,510.54998779296875,268.5666809082031)"><path transform="matrix(0.017,0,0,-0.017,0,0)" d="M622 285C624 428 505 474 382 473C398 548 407 624 432 699L432 705C418 700 404 693 389 684L354 473C184 474 30 367 27 185C24 37 142 -8 268 -16L229 -289C249 -282 267 -274 282 -261C283 -179 288 -98 299 -16C481 -3 618 87 622 285ZM539 273C537 130 451 11 301 6L377 449C487 447 541 380 539 273ZM349 449L270 5C155 14 106 73 108 187C111 336 196 444 349 449Z" stroke="rgb(102,121,130)" stroke-opacity="1" stroke-width="8" fill="rgb(102,121,130)" fill-opacity="1"></path></g></g><g><g><g><g><g><g><g><text x="522.3666381835938" y="262.3999938964844" style="white-space:pre;stroke:none;fill:rgb(102,121,130);fill-opacity:1;font-size:10.5px;font-family:Arial, Helvetica, sans-serif;font-weight:400;font-style:normal;dominant-baseline:text-before-edge;text-decoration:rgb(102, 121, 130);">Doppler</text></g></g></g></g></g></g></g><g><g transform="matrix(1,0,0,1,560.1333618164062,268.5500183105469)"><path transform="matrix(0.017,0,0,-0.017,0,0)" d="M146 266C146 526 243 632 301 700L282 726C225 675 60 542 60 266C60 159 85 58 133 -32C168 -99 200 -138 282 -215L301 -194C255 -137 146 -15 146 266Z" stroke="rgb(102,121,130)" stroke-opacity="1" stroke-width="8" fill="rgb(102,121,130)" fill-opacity="1"></path></g></g><g><g transform="matrix(1,0,0,1,565.7833862304688,268.5666809082031)"><path transform="matrix(0.017,0,0,-0.017,0,0)" d="M125 390L69 107C68 99 56 61 56 31C56 6 67 -9 86 -9C121 -9 156 11 234 74L265 99L255 117L210 86C181 66 161 56 150 56C141 56 136 64 136 76C136 102 150 183 179 328L192 390L299 390L310 440C272 436 238 434 200 434C216 528 227 577 245 631L234 646C214 634 187 622 156 610L131 440C87 419 61 408 43 403L41 390Z" stroke="rgb(102,121,130)" stroke-opacity="1" stroke-width="8" fill="rgb(102,121,130)" fill-opacity="1"></path></g></g><g><g transform="matrix(1,0,0,1,571.4334106445312,268.5500183105469)"><path transform="matrix(0.017,0,0,-0.017,0,0)" d="M51 726L32 700C87 636 187 526 187 266C187 -10 83 -131 32 -194L51 -215C104 -165 273 -23 273 265C273 542 108 675 51 726Z" stroke="rgb(102,121,130)" stroke-opacity="1" stroke-width="8" fill="rgb(102,121,130)" fill-opacity="1"></path></g></g></g></g><g><g><g><g transform="matrix(1,0,0,1,49.54998779296875,57.56666564941406)"><path transform="matrix(0.017,0,0,-0.017,0,0)" d="M483 722L471 733C419 707 383 698 311 691L307 670L355 670C379 670 389 663 389 646C389 638 388 629 387 622L359 468C329 477 302 482 277 482C208 482 114 410 68 323C37 265 17 170 17 86C17 21 32 -11 61 -11C88 -11 125 6 159 33C213 77 246 116 313 217L290 126C279 82 274 50 274 24C274 3 283 -9 300 -9C317 -9 341 3 375 28L456 88L446 107L402 76C388 66 372 59 363 59C355 59 349 68 349 82C349 90 350 99 357 128ZM114 59C98 59 89 73 89 98C89 224 135 380 184 418C197 428 216 433 243 433C287 433 316 427 349 410L337 351C300 171 159 59 114 59Z" stroke="rgb(102,121,130)" stroke-opacity="1" stroke-width="8" fill="rgb(102,121,130)" fill-opacity="1"></path></g></g><g><g><g></g></g></g></g></g><g><g><g><g><g><g><g transform="matrix(1,0,0,1,57.54998779296875,342.08331909179685)"><path transform="matrix(0.020399999999999998,0,0,-0.020399999999999998,0,0)" d="M63 278L63 281C118 423 114 402 279 408C237 307 190 180 187 71C183 -74 360 -4 411 59L411 65L397 75L397 74C374 56 347 33 318 33C198 33 313 370 326 412C371 413 431 411 476 420L476 463L108 463C81 448 56 310 48 278Z" stroke="rgb(102,121,130)" stroke-opacity="1" stroke-width="8" fill="rgb(102,121,130)" fill-opacity="1"></path></g></g><g><g transform="matrix(1,0,0,1,68.13336181640625,342.08331909179685)"><path transform="matrix(0.020399999999999998,0,0,-0.020399999999999998,0,0)" d="M204 123C177 114 159 108 106 93C99 17 74 -48 16 -144L30 -155L71 -136C152 -31 190 32 218 109Z" stroke="rgb(102,121,130)" stroke-opacity="1" stroke-width="8" fill="rgb(102,121,130)" fill-opacity="1"></path></g></g><g><g transform="matrix(1,0,0,1,77.29998779296875,342.08331909179685)"><path transform="matrix(0.020399999999999998,0,0,-0.020399999999999998,0,0)" d="M871 285C873 428 754 474 631 473C647 548 656 624 681 699L681 705C667 700 653 693 638 684L603 473C433 474 279 367 276 185C273 37 391 -8 517 -16L478 -289C498 -282 516 -274 531 -261C532 -179 537 -98 548 -16C730 -3 867 87 871 285ZM788 273C786 130 700 11 550 6L626 449C736 447 790 380 788 273ZM598 449L519 5C404 14 355 73 357 187C360 336 445 444 598 449Z" stroke="rgb(102,121,130)" stroke-opacity="1" stroke-width="8" fill="rgb(102,121,130)" fill-opacity="1"></path></g></g><g><g><g><g><g><g><g><text x="96.56671142578125" y="334.0500183105469" style="white-space:pre;stroke:none;fill:rgb(102,121,130);fill-opacity:1;font-size:12.6px;font-family:Arial, Helvetica, sans-serif;font-weight:400;font-style:normal;dominant-baseline:text-before-edge;text-decoration:rgb(102, 121, 130);">GW</text></g></g></g></g></g></g></g><g><g transform="matrix(1,0,0,1,119.48333740234375,342.08331909179685)"><path transform="matrix(0.020399999999999998,0,0,-0.020399999999999998,0,0)" d="M204 123C177 114 159 108 106 93C99 17 74 -48 16 -144L30 -155L71 -136C152 -31 190 32 218 109Z" stroke="rgb(102,121,130)" stroke-opacity="1" stroke-width="8" fill="rgb(102,121,130)" fill-opacity="1"></path></g></g><g><g transform="matrix(1,0,0,1,128.6500244140625,342.08331909179685)"><path transform="matrix(0.020399999999999998,0,0,-0.020399999999999998,0,0)" d="M871 285C873 428 754 474 631 473C647 548 656 624 681 699L681 705C667 700 653 693 638 684L603 473C433 474 279 367 276 185C273 37 391 -8 517 -16L478 -289C498 -282 516 -274 531 -261C532 -179 537 -98 548 -16C730 -3 867 87 871 285ZM788 273C786 130 700 11 550 6L626 449C736 447 790 380 788 273ZM598 449L519 5C404 14 355 73 357 187C360 336 445 444 598 449Z" stroke="rgb(102,121,130)" stroke-opacity="1" stroke-width="8" fill="rgb(102,121,130)" fill-opacity="1"></path></g></g><g><g><g><g><g><g><g><text x="147.91668701171875" y="334.0500183105469" style="white-space:pre;stroke:none;fill:rgb(102,121,130);fill-opacity:1;font-size:12.6px;font-family:Arial, Helvetica, sans-serif;font-weight:400;font-style:normal;dominant-baseline:text-before-edge;text-decoration:rgb(102, 121, 130);">DS</text></g></g></g></g></g></g></g></g></g></g></g></g><g><g><g><g transform="matrix(1,0,0,1,257.54998779296875,322.5666809082031)"><path transform="matrix(0.017,0,0,-0.017,0,0)" d="M400 -16C446 -16 513 54 545 84L545 97L532 97C513 79 489 55 462 55C417 55 424 184 424 216C474 278 520 343 558 413C551 428 544 444 536 459L525 459C511 391 456 315 420 257C422 336 445 472 332 473C164 473 27 243 24 93C23 33 43 -16 111 -16C203 -16 297 64 357 131C357 96 348 -15 400 -16ZM284 437C371 437 358 224 357 164C314 113 233 28 162 28C109 28 98 70 99 115C100 202 175 437 284 437Z" stroke="rgb(102,121,130)" stroke-opacity="1" stroke-width="8" fill="rgb(102,121,130)" fill-opacity="1"></path></g></g></g></g><g><g><g><g transform="matrix(1,0,0,1,325.54998779296875,334.5666809082031)"><path transform="matrix(0.017,0,0,-0.017,0,0)" d="M459 205C459 301 389 358 298 360L298 369C391 400 475 479 476 581C477 644 445 680 381 680C154 680 114 463 89 289C62 101 36 -87 -8 -273L-8 -283C18 -274 43 -265 70 -259C76 -162 90 -66 104 29C239 -84 459 37 459 205ZM216 12C159 12 123 45 124 103C126 205 190 570 278 629C337 668 411 631 406 558C398 447 310 371 204 371C201 338 204 378 200 329C294 362 383 309 378 208C374 115 322 12 216 12Z" stroke="rgb(102,121,130)" stroke-opacity="1" stroke-width="8" fill="rgb(102,121,130)" fill-opacity="1"></path></g></g></g></g></svg>
</svg>
